<?xml version="1.0" encoding="UTF-8"?>
<svg width="154px" height="30px" viewBox="0 0 154 30" version="1.1" xmlns="http://www.w3.org/2000/svg"
     xmlns:xlink="http://www.w3.org/1999/xlink">
  <!-- Generator: sketchtool 51.1 (57501) - http://www.bohemiancoding.com/sketch -->
  <g id="Deposits" stroke="none" stroke-width="1" fill="#006037" fill-rule="evenodd">
    <path
      d="M14.5195556,0.859188544 L14.5195556,14.2124105 C14.5195556,14.7136038 14.130242,14.8926014 13.7763205,14.5346062 L0.18573675,0.751789976 C-0.168184702,0.393794749 0.00877602407,0 0.504266058,0 L13.7409284,0 C14.2364184,0 14.5195556,0.250596659 14.5195556,0.859188544 Z M14.5195556,15.8949881 L14.5195556,29.24821 C14.5195556,29.7494033 14.130242,29.928401 13.7763205,29.5704057 L0.18573675,15.7875895 C-0.168184702,15.4295943 0.00877602407,15.0357995 0.504266058,15.0357995 L13.7409284,15.0357995 C14.2364184,15.0357995 14.5195556,15.2863962 14.5195556,15.8949881 Z M29.4196487,0.859188544 L29.4196487,14.2124105 C29.4196487,14.7136038 29.0303351,14.8926014 28.6764137,14.5346062 L15.0504378,0.751789976 C14.6965163,0.393794749 14.873477,0 15.3689671,0 L28.6056294,0 C29.1365116,0 29.4196487,0.250596659 29.4196487,0.859188544 Z M29.4196487,15.8949881 L29.4196487,29.24821 C29.4196487,29.7494033 29.0303351,29.928401 28.6764137,29.5704057 L15.0504378,15.7875895 C14.6965163,15.4295943 14.873477,15.0357995 15.3689671,15.0357995 L28.6056294,15.0357995 C29.1365116,15.0357995 29.4196487,15.2863962 29.4196487,15.8949881 Z M36.7458228,15.071599 L40.0726844,15.071599 L40.0726844,29.7494033 L36.7458228,29.7494033 L36.7458228,15.071599 Z M46.0185648,29.7494033 L42.9394482,29.7494033 L42.9394482,15.071599 L46.9033685,15.071599 L52.4953274,25.5250597 L52.5307196,25.5250597 L52.2829746,15.071599 L55.3620912,15.071599 L55.3620912,29.7494033 L51.8228767,29.7494033 L45.9831727,18.8305489 L45.9123884,18.8305489 L46.0185648,29.7494033 Z M67.1476756,20.8353222 L67.1476756,23.5560859 L61.5911088,23.5560859 L61.5911088,26.9928401 L67.8201263,26.9928401 L67.8201263,29.7494033 L58.2642471,29.7494033 L58.2642471,15.071599 L67.501597,15.071599 L67.501597,17.8281623 L61.5911088,17.8281623 L61.5911088,20.8711217 L67.1476756,20.8711217 L67.1476756,20.8353222 Z M80.6320829,26.7064439 L81.1629651,29.3198091 C80.171985,29.7852029 78.8624756,30 77.2698291,30 C74.8277711,30 72.9165952,29.3198091 71.5363016,27.9952267 C70.1560079,26.6348449 69.448165,24.8806683 69.448165,22.6252983 C69.448165,20.2625298 70.1914001,18.4009547 71.7132623,16.9689737 C73.2351245,15.5727924 75.1816925,14.8568019 77.5883584,14.8568019 C79.2163971,14.8568019 80.4551222,15.071599 81.3399258,15.5369928 L80.667475,18.1861575 C79.7826714,17.7923628 78.7916913,17.6133652 77.729927,17.6133652 C76.278849,17.6133652 75.1109082,18.0429594 74.2261046,18.902148 C73.341301,19.7613365 72.9165952,20.9427208 72.9165952,22.4463007 C72.9165952,23.9140811 73.341301,25.0954654 74.2261046,25.9546539 C75.0755161,26.8138425 76.2434569,27.2434368 77.7653191,27.2434368 C78.7916913,27.2076372 79.7826714,27.0286396 80.6320829,26.7064439 Z M96.487764,22.2673031 C96.487764,24.5942721 95.8153132,26.4558473 94.4704117,27.8520286 C93.1255102,29.24821 91.3205108,29.9642005 89.1615899,29.9642005 C87.002669,29.9642005 85.3038461,29.2840095 83.9943367,27.8520286 C82.6848273,26.4558473 82.0477687,24.6658711 82.0477687,22.4821002 C82.0477687,20.2267303 82.7202195,18.4009547 84.1005131,16.9689737 C85.4454147,15.5369928 87.2150219,14.8210024 89.3739428,14.8210024 C91.5328636,14.8210024 93.2670788,15.5011933 94.5765881,16.8973747 C95.8507054,18.3293556 96.487764,20.1193317 96.487764,22.2673031 Z M85.5161989,22.4463007 C85.5161989,23.8782816 85.8701204,25.0596659 86.5425712,25.9904535 C87.2150219,26.8854415 88.1352177,27.3508353 89.2323742,27.3508353 C90.3649228,27.3508353 91.2497265,26.8854415 91.9575694,25.9904535 C92.6300201,25.0954654 92.9839416,23.8782816 92.9839416,22.4105012 C92.9839416,20.9785203 92.6654123,19.797136 91.9575694,18.902148 C91.2851186,17.9713604 90.3649228,17.5059666 89.2677663,17.5059666 C88.1706098,17.5059666 87.2504141,17.9713604 86.5779633,18.902148 C85.8701204,19.797136 85.5161989,20.9785203 85.5161989,22.4463007 Z M98.7174691,29.6778043 L98.7174691,15.2863962 C99.8854099,15.071599 101.336488,14.9642005 103.070703,14.9642005 C105.300408,14.9642005 106.857663,15.3221957 107.81325,16.0023866 C108.768838,16.6825776 109.228936,17.5775656 109.228936,18.6873508 C109.228936,19.3675418 109.016583,20.0119332 108.62727,20.548926 C108.237956,21.0859189 107.600898,21.5155131 106.82227,21.8019093 L106.82227,21.8377088 C107.742466,22.0883055 108.450309,22.5178998 108.981191,23.1622912 C109.512073,23.8066826 109.759818,24.5584726 109.759818,25.4534606 C109.759818,26.7422434 109.228936,27.7804296 108.167172,28.6396181 C107.105408,29.4630072 105.15884,29.8926014 102.36286,29.8926014 C100.947174,29.8926014 99.7438413,29.8210024 98.7174691,29.6778043 Z M102.008939,17.5059666 L102.008939,20.8711217 L103.106095,20.8711217 C103.990899,20.8711217 104.66335,20.6921241 105.15884,20.4057279 C105.618937,20.0835322 105.866682,19.6539379 105.866682,19.0811456 C105.866682,17.9713604 105.052663,17.398568 103.460017,17.398568 C102.787566,17.398568 102.292076,17.4343675 102.008939,17.5059666 Z M102.008939,23.2696897 L102.008939,27.3508353 C102.185899,27.3866348 102.610605,27.4224344 103.35384,27.4224344 C104.274036,27.4224344 104.981879,27.2434368 105.477369,26.8854415 C106.008251,26.5274463 106.255996,25.9904535 106.255996,25.3102625 C106.255996,24.6300716 106.008251,24.1288783 105.441977,23.7708831 C104.911095,23.4128878 104.167859,23.2338902 103.176879,23.2338902 L102.008939,23.2338902 L102.008939,23.2696897 Z M119.740403,25.9188544 L115.38717,25.9188544 L114.325405,29.7494033 L110.856975,29.7494033 L115.422562,15.071599 L119.811188,15.071599 L124.518343,29.7494033 L120.908344,29.7494033 L119.740403,25.9188544 Z M115.88266,23.4486874 L119.209521,23.4486874 C118.324718,20.5847255 117.758443,18.6157518 117.510698,17.5417661 L117.475306,17.5417661 L116.802855,20.3341289 L115.88266,23.4486874 Z M129.57942,29.7494033 L126.500303,29.7494033 L126.500303,15.071599 L130.464223,15.071599 L136.056182,25.5250597 L136.091575,25.5250597 L135.843829,15.071599 L138.922946,15.071599 L138.922946,29.7494033 L135.383732,29.7494033 L129.508635,18.8305489 L129.437851,18.8305489 L129.57942,29.7494033 Z M141.78971,29.7494033 L141.78971,15.071599 L145.081179,15.071599 L145.081179,21.5513126 C145.541277,20.8711217 145.930591,20.2983294 146.284512,19.797136 L149.575982,15.071599 L153.716863,15.071599 L148.761963,21.300716 L154,29.7494033 L150.106864,29.7494033 L146.355297,23.4128878 L145.081179,24.9522673 L145.081179,29.7494033 L141.78971,29.7494033 Z"
      id="Combined-Shape"></path>
  </g>
</svg>
